<?xml version="1.0" encoding="UTF-8"?><svg xmlns="http://www.w3.org/2000/svg" xmlns:xlink="http://www.w3.org/1999/xlink" viewBox="0 0 750 500"><defs><style>.cls-1{fill:none;}.cls-2{fill:url(#radial-gradient-2);}.cls-2,.cls-3,.cls-4,.cls-5,.cls-6,.cls-7,.cls-8,.cls-9,.cls-10,.cls-11,.cls-12,.cls-13,.cls-14,.cls-15,.cls-16,.cls-17,.cls-18,.cls-19,.cls-20,.cls-21,.cls-22,.cls-23,.cls-24,.cls-25,.cls-26,.cls-27,.cls-28,.cls-29,.cls-30,.cls-31,.cls-32,.cls-33,.cls-34,.cls-35,.cls-36,.cls-37,.cls-38,.cls-39,.cls-40,.cls-41,.cls-42,.cls-43,.cls-44,.cls-45,.cls-46,.cls-47{mix-blend-mode:color-dodge;}.cls-3{fill:url(#radial-gradient-3);}.cls-4{fill:url(#radial-gradient-6);}.cls-5{fill:url(#radial-gradient-4);}.cls-6{fill:url(#radial-gradient-9);}.cls-7{fill:url(#radial-gradient-5);}.cls-8{fill:url(#radial-gradient-8);}.cls-9{fill:url(#radial-gradient-7);}.cls-48{clip-path:url(#clippath);}.cls-10{fill:url(#radial-gradient-44);}.cls-10,.cls-11,.cls-12{opacity:.4;}.cls-11{fill:url(#radial-gradient-43);}.cls-12{fill:url(#radial-gradient-42);}.cls-49{fill:url(#radial-gradient-48);}.cls-49,.cls-50{mix-blend-mode:screen;}.cls-50{fill:url(#radial-gradient-47);}.cls-13{fill:url(#radial-gradient);}.cls-14{fill:url(#radial-gradient-21);}.cls-15{fill:url(#radial-gradient-20);}.cls-16{fill:url(#radial-gradient-13);}.cls-17{fill:url(#radial-gradient-14);}.cls-18{fill:url(#radial-gradient-12);}.cls-19{fill:url(#radial-gradient-15);}.cls-20{fill:url(#radial-gradient-25);}.cls-21{fill:url(#radial-gradient-34);}.cls-22{fill:url(#radial-gradient-35);}.cls-23{fill:url(#radial-gradient-24);}.cls-24{fill:url(#radial-gradient-23);}.cls-25{fill:url(#radial-gradient-29);}.cls-26{fill:url(#radial-gradient-28);}.cls-27{fill:url(#radial-gradient-36);}.cls-28{fill:url(#radial-gradient-39);}.cls-29{fill:url(#radial-gradient-27);}.cls-30{fill:url(#radial-gradient-26);}.cls-31{fill:url(#radial-gradient-22);}.cls-32{fill:url(#radial-gradient-37);}.cls-33{fill:url(#radial-gradient-32);}.cls-34{fill:url(#radial-gradient-33);}.cls-35{fill:url(#radial-gradient-31);}.cls-36{fill:url(#radial-gradient-38);}.cls-37{fill:url(#radial-gradient-40);}.cls-38{fill:url(#radial-gradient-30);}.cls-39{fill:url(#radial-gradient-45);}.cls-40{fill:url(#radial-gradient-46);}.cls-41{fill:url(#radial-gradient-16);}.cls-42{fill:url(#radial-gradient-11);}.cls-43{fill:url(#radial-gradient-19);}.cls-44{fill:url(#radial-gradient-17);}.cls-45{fill:url(#radial-gradient-18);}.cls-46{fill:url(#radial-gradient-10);}.cls-47{fill:url(#radial-gradient-41);}.cls-51{isolation:isolate;}</style><clipPath id="clippath"><rect class="cls-1" x=".17" y=".26" width="750" height="500"/></clipPath><radialGradient id="radial-gradient" cx="-2853.64" cy="2810.34" fx="-2853.64" fy="2810.34" r="26.34" gradientTransform="translate(-1409.26 -1500.79) rotate(-91.93) scale(.61 .57)" gradientUnits="userSpaceOnUse"><stop offset="0" stop-color="#fff"/><stop offset=".02" stop-color="#f3f3f3"/><stop offset=".14" stop-color="#bbb"/><stop offset=".25" stop-color="#898989"/><stop offset=".37" stop-color="#5f5f5f"/><stop offset=".49" stop-color="#3c3c3c"/><stop offset=".61" stop-color="#222"/><stop offset=".74" stop-color="#0f0f0f"/><stop offset=".86" stop-color="#030303"/><stop offset="1" stop-color="#000"/></radialGradient><radialGradient id="radial-gradient-2" cx="-2735.43" cy="3165.95" fx="-2735.43" fy="3165.95" r="17.86" xlink:href="#radial-gradient"/><radialGradient id="radial-gradient-3" cx="-2677.37" cy="2816.07" fx="-2677.37" fy="2816.07" r="10.65" xlink:href="#radial-gradient"/><radialGradient id="radial-gradient-4" cx="-2615.92" cy="2771.33" fx="-2615.92" fy="2771.33" r="10.65" xlink:href="#radial-gradient"/><radialGradient id="radial-gradient-5" cx="-2575.56" cy="3141.07" fx="-2575.56" fy="3141.07" r="10.65" xlink:href="#radial-gradient"/><radialGradient id="radial-gradient-6" cx="-2667.18" cy="3637.26" fx="-2667.18" fy="3637.26" r="10.65" xlink:href="#radial-gradient"/><radialGradient id="radial-gradient-7" cx="-2591.6" cy="3469.83" fx="-2591.6" fy="3469.83" r="15.35" xlink:href="#radial-gradient"/><radialGradient id="radial-gradient-8" cx="-2606.3" cy="3638.18" fx="-2606.3" fy="3638.18" r="15.35" xlink:href="#radial-gradient"/><radialGradient id="radial-gradient-9" cx="-3184.19" cy="3516.5" fx="-3184.19" fy="3516.5" r="15.35" xlink:href="#radial-gradient"/><radialGradient id="radial-gradient-10" cx="-2604.01" cy="2474.43" fx="-2604.01" fy="2474.43" r="15.62" xlink:href="#radial-gradient"/><radialGradient id="radial-gradient-11" cx="-2577.84" cy="2706.41" fx="-2577.84" fy="2706.41" r="17" xlink:href="#radial-gradient"/><radialGradient id="radial-gradient-12" cx="-2947.46" cy="3493.83" fx="-2947.46" fy="3493.83" r="17" xlink:href="#radial-gradient"/><radialGradient id="radial-gradient-13" cx="-2856.02" cy="3468.68" fx="-2856.02" fy="3468.68" r="17" xlink:href="#radial-gradient"/><radialGradient id="radial-gradient-14" cx="-2785.74" cy="3521.16" fx="-2785.74" fy="3521.16" r="17" xlink:href="#radial-gradient"/><radialGradient id="radial-gradient-15" cx="-2748.77" cy="3400.03" fx="-2748.77" fy="3400.03" r="12.92" xlink:href="#radial-gradient"/><radialGradient id="radial-gradient-16" cx="-2624.58" cy="3416.07" fx="-2624.58" fy="3416.07" r="12.92" xlink:href="#radial-gradient"/><radialGradient id="radial-gradient-17" cx="-2608.89" cy="3328.78" fx="-2608.89" fy="3328.78" r="33.95" gradientTransform="translate(-1356.92 -1565.84) rotate(-90) scale(.61 .57)" xlink:href="#radial-gradient"/><radialGradient id="radial-gradient-18" cx="-3084.71" cy="3339.58" fx="-3084.71" fy="3339.58" r="8.68" xlink:href="#radial-gradient"/><radialGradient id="radial-gradient-19" cx="-3118.13" cy="2989.88" fx="-3118.13" fy="2989.88" r="8.68" xlink:href="#radial-gradient"/><radialGradient id="radial-gradient-20" cx="-3117.36" cy="2874.88" fx="-3117.36" fy="2874.88" r="8.68" xlink:href="#radial-gradient"/><radialGradient id="radial-gradient-21" cx="-3002.71" cy="2916.44" fx="-3002.71" fy="2916.44" r="8.68" xlink:href="#radial-gradient"/><radialGradient id="radial-gradient-22" cx="-3107.88" cy="2629.81" fx="-3107.88" fy="2629.81" r="6.38" xlink:href="#radial-gradient"/><radialGradient id="radial-gradient-23" cx="-2603.9" cy="2877.33" fx="-2603.9" fy="2877.33" r="18.1" xlink:href="#radial-gradient"/><radialGradient id="radial-gradient-24" cx="-2609" cy="3022.64" fx="-2609" fy="3022.64" r="18.1" xlink:href="#radial-gradient"/><radialGradient id="radial-gradient-25" cx="-2575.57" cy="3239.75" fx="-2575.57" fy="3239.75" r="18.1" xlink:href="#radial-gradient"/><radialGradient id="radial-gradient-26" cx="-2626.2" cy="3416.01" fx="-2626.2" fy="3416.01" r="18.1" xlink:href="#radial-gradient"/><radialGradient id="radial-gradient-27" cx="-2864.59" cy="3096.12" fx="-2864.59" fy="3096.12" r="12.62" xlink:href="#radial-gradient"/><radialGradient id="radial-gradient-28" cx="-2979.46" cy="2700.84" fx="-2979.46" fy="2700.84" r="7.9" xlink:href="#radial-gradient"/><radialGradient id="radial-gradient-29" cx="-3049.59" cy="2567.09" fx="-3049.59" fy="2567.09" r="7.9" xlink:href="#radial-gradient"/><radialGradient id="radial-gradient-30" cx="-3251.04" cy="2574" fx="-3251.04" fy="2574" r="7.9" xlink:href="#radial-gradient"/><radialGradient id="radial-gradient-31" cx="-3275.45" cy="2526.04" fx="-3275.45" fy="2526.04" r="4.64" xlink:href="#radial-gradient"/><radialGradient id="radial-gradient-32" cx="-3260.38" cy="2394.58" fx="-3260.38" fy="2394.58" r="4.64" xlink:href="#radial-gradient"/><radialGradient id="radial-gradient-33" cx="-3332.73" cy="2592.74" fx="-3332.73" fy="2592.74" r="4.64" xlink:href="#radial-gradient"/><radialGradient id="radial-gradient-34" cx="-2939.85" cy="2680.78" fx="-2939.85" fy="2680.78" r="4.64" xlink:href="#radial-gradient"/><radialGradient id="radial-gradient-35" cx="-2759.78" cy="2390.77" fx="-2759.78" fy="2390.77" r="20.61" xlink:href="#radial-gradient"/><radialGradient id="radial-gradient-36" cx="-2712.11" cy="2678.08" fx="-2712.11" fy="2678.08" r="13.77" xlink:href="#radial-gradient"/><radialGradient id="radial-gradient-37" cx="-2605.07" cy="2610.97" fx="-2605.07" fy="2610.97" r="8.25" xlink:href="#radial-gradient"/><radialGradient id="radial-gradient-38" cx="-2920.58" cy="2575.21" fx="-2920.58" fy="2575.21" r="8.25" xlink:href="#radial-gradient"/><radialGradient id="radial-gradient-39" cx="-3080.73" cy="2448.94" fx="-3080.73" fy="2448.94" r="12.18" xlink:href="#radial-gradient"/><radialGradient id="radial-gradient-40" cx="-2961.73" cy="2839.38" fx="-2961.73" fy="2839.38" r="12.18" xlink:href="#radial-gradient"/><radialGradient id="radial-gradient-41" cx="-2862.35" cy="2949.44" fx="-2862.35" fy="2949.44" r="12.18" xlink:href="#radial-gradient"/><radialGradient id="radial-gradient-42" cx="-2795.99" cy="2965.6" fx="-2795.99" fy="2965.6" r="10.92" xlink:href="#radial-gradient"/><radialGradient id="radial-gradient-43" cx="-2775.07" cy="2779.41" fx="-2775.07" fy="2779.41" r="10.92" xlink:href="#radial-gradient"/><radialGradient id="radial-gradient-44" cx="-2756.13" cy="2671.04" fx="-2756.13" fy="2671.04" r="10.92" xlink:href="#radial-gradient"/><radialGradient id="radial-gradient-45" cx="-2802.87" cy="3349.69" fx="-2802.87" fy="3349.69" r="14.93" xlink:href="#radial-gradient"/><radialGradient id="radial-gradient-46" cx="-2693.69" cy="3151.77" fx="-2693.69" fy="3151.77" r="14.93" xlink:href="#radial-gradient"/><radialGradient id="radial-gradient-47" cx="-2742.85" cy="3066.91" fx="-2742.85" fy="3066.91" r="14.93" gradientTransform="translate(-1409.26 -1500.79) rotate(-91.93) scale(.61 .57)" gradientUnits="userSpaceOnUse"><stop offset="0" stop-color="#fff"/><stop offset="0" stop-color="#f5f5f5"/><stop offset=".05" stop-color="#c7c7c7"/><stop offset=".09" stop-color="#9c9c9c"/><stop offset=".14" stop-color="#777"/><stop offset=".2" stop-color="#565656"/><stop offset=".25" stop-color="#3b3b3b"/><stop offset=".32" stop-color="#252525"/><stop offset=".4" stop-color="#141414"/><stop offset=".49" stop-color="#080808"/><stop offset=".63" stop-color="#010101"/><stop offset="1" stop-color="#000"/></radialGradient><radialGradient id="radial-gradient-48" cx="-2614.35" cy="2692.17" fx="-2614.35" fy="2692.17" r="7.69" xlink:href="#radial-gradient-47"/></defs><g class="cls-51"><g id="BACKGROUND_2"><g class="cls-48"><path class="cls-13" d="M255.09,162.56c8.31-.28,15.3,6.66,15.59,15.49,.3,8.84-6.2,16.23-14.51,16.51-8.31,.28-15.3-6.66-15.59-15.49-.3-8.84,6.2-16.23,14.51-16.51Z"/><path class="cls-2" d="M456.1,89.03c5.64-.19,10.37,4.51,10.57,10.5,.2,5.99-4.2,11-9.84,11.19-5.64,.19-10.37-4.51-10.57-10.5-.2-5.99,4.2-11,9.84-11.19Z"/><path class="cls-3" d="M255.07,64.89c3.36-.11,6.18,2.69,6.3,6.26s-2.51,6.56-5.87,6.67c-3.36,.11-6.18-2.69-6.3-6.26s2.51-6.56,5.87-6.67Z"/><path class="cls-5" d="M228.24,28.43c3.36-.11,6.18,2.69,6.3,6.26s-2.51,6.56-5.87,6.67c-3.36,.11-6.18-2.69-6.3-6.26s2.51-6.56,5.87-6.67Z"/><path class="cls-7" d="M438.75-3.23c3.36-.11,6.18,2.69,6.3,6.26s-2.51,6.56-5.87,6.67c-3.36,.11-6.18-2.69-6.3-6.26s2.51-6.56,5.87-6.67Z"/><path class="cls-4" d="M724.25,42.85c3.36-.11,6.18,2.69,6.3,6.26s-2.51,6.56-5.87,6.67-6.18-2.69-6.3-6.26,2.51-6.56,5.87-6.67Z"/><path class="cls-9" d="M626.91-2.69c4.84-.16,8.91,3.88,9.09,9.03,.17,5.15-3.61,9.46-8.46,9.62-4.84,.16-8.91-3.88-9.09-9.03-.17-5.15,3.61-9.46,8.46-9.62Z"/><path class="cls-8" d="M723.44,3c4.85-.16,8.91,3.88,9.09,9.03,.17,5.15-3.61,9.46-8.46,9.62-4.84,.16-8.91-3.88-9.09-9.03-.17-5.15,3.61-9.46,8.46-9.62Z"/><path class="cls-6" d="M665.73,356.41c4.84-.16,8.91,3.88,9.09,9.03,.17,5.15-3.61,9.46-8.46,9.62-4.84,.16-8.91-3.88-9.09-9.03-.17-5.15,3.61-9.46,8.46-9.62Z"/><path class="cls-46" d="M58.18,23.9c4.93-.17,9.07,3.95,9.25,9.19,.18,5.24-3.68,9.63-8.61,9.79-4.93,.17-9.07-3.95-9.25-9.19-.18-5.24,3.68-9.63,8.61-9.79Z"/><path class="cls-42" d="M190.22,2.68c5.37-.18,9.88,4.3,10.07,10,.19,5.71-4,10.48-9.37,10.66s-9.88-4.3-10.07-10c-.19-5.71,4-10.48,9.37-10.66Z"/><path class="cls-18" d="M647.88,212.03c5.37-.18,9.88,4.3,10.07,10,.19,5.71-4,10.48-9.37,10.66-5.37,.18-9.88-4.3-10.07-10-.19-5.71,4-10.48,9.37-10.66Z"/><path class="cls-16" d="M631.63,156.97c5.37-.18,9.88,4.3,10.07,10,.19,5.71-4,10.48-9.37,10.66-5.37,.18-9.88-4.3-10.07-10-.19-5.71,4-10.48,9.37-10.66Z"/><path class="cls-17" d="M660.19,113.26c5.37-.18,9.88,4.3,10.07,10,.19,5.71-4,10.48-9.37,10.66-5.37,.18-9.88-4.3-10.07-10-.19-5.71,4-10.48,9.37-10.66Z"/><path class="cls-19" d="M590.28,95.61c4.08-.14,7.5,3.27,7.65,7.6,.15,4.33-3.04,7.96-7.12,8.1-4.08,.14-7.5-3.27-7.65-7.6-.15-4.33,3.04-7.96,7.12-8.1Z"/><path class="cls-41" d="M596.9,19.86c4.08-.14,7.5,3.27,7.65,7.6,.15,4.33-3.04,7.96-7.12,8.1-4.08,.14-7.5-3.27-7.65-7.6-.15-4.33,3.04-7.96,7.12-8.1Z"/><ellipse class="cls-44" cx="546.95" cy="19.86" rx="19.42" ry="20.64" transform="translate(-.36 18.44) rotate(-1.93)"/><path class="cls-45" d="M562.7,303.44c2.74-.09,5.04,2.19,5.14,5.11,.1,2.91-2.04,5.35-4.78,5.44-2.74,.09-5.04-2.19-5.14-5.11-.1-2.91,2.04-5.35,4.78-5.44Z"/><path class="cls-43" d="M363.49,330.49c2.74-.09,5.04,2.19,5.14,5.11,.1,2.91-2.04,5.35-4.78,5.44-2.74,.09-5.04-2.19-5.14-5.11-.1-2.91,2.04-5.35,4.78-5.44Z"/><path class="cls-15" d="M297.74,332.24c2.74-.09,5.04,2.19,5.14,5.11,.1,2.91-2.04,5.35-4.78,5.44-2.74,.09-5.04-2.19-5.14-5.11-.1-2.91,2.04-5.35,4.78-5.44Z"/><path class="cls-14" d="M319.15,261.8c2.74-.09,5.04,2.19,5.14,5.11,.1,2.91-2.04,5.35-4.78,5.44-2.74,.09-5.04-2.19-5.14-5.11-.1-2.91,2.04-5.35,4.78-5.44Z"/><path class="cls-31" d="M157.52,332.61c2.01-.07,3.7,1.61,3.78,3.75,.07,2.14-1.5,3.93-3.52,4-2.01,.07-3.7-1.61-3.78-3.75-.07-2.14,1.5-3.93,3.52-4Z"/><path class="cls-24" d="M288.43,14.55c5.71-.19,10.51,4.58,10.72,10.65s-4.26,11.15-9.98,11.35c-5.71,.19-10.51-4.58-10.72-10.65s4.26-11.15,9.98-11.35Z"/><path class="cls-23" d="M371.59,14.84c5.71-.19,10.51,4.58,10.72,10.65,.2,6.07-4.26,11.15-9.98,11.35-5.71,.19-10.51-4.58-10.72-10.65-.2-6.07,4.26-11.15,9.98-11.35Z"/><path class="cls-20" d="M495.01-9.66c5.71-.19,10.51,4.58,10.72,10.65,.2,6.07-4.26,11.15-9.98,11.35-5.71,.19-10.51-4.58-10.72-10.65-.2-6.07,4.26-11.15,9.98-11.35Z"/><path class="cls-30" d="M596.8,17.7c5.71-.19,10.51,4.58,10.72,10.65,.2,6.07-4.26,11.15-9.98,11.35s-10.51-4.58-10.72-10.65c-.2-6.07,4.26-11.15,9.98-11.35Z"/><path class="cls-29" d="M418.94,172.02c3.98-.13,7.33,3.19,7.47,7.42,.14,4.23-2.97,7.77-6.95,7.91-3.98,.13-7.33-3.19-7.47-7.42-.14-4.23,2.97-7.77,6.95-7.91Z"/><path class="cls-26" d="M195.45,252.31c2.49-.08,4.59,2,4.68,4.64,.09,2.65-1.86,4.87-4.35,4.95s-4.59-2-4.68-4.64c-.09-2.65,1.86-4.87,4.35-4.95Z"/><path class="cls-25" d="M120.44,297.49c2.49-.08,4.59,2,4.68,4.65,.09,2.65-1.86,4.87-4.35,4.95s-4.59-2-4.68-4.65c-.09-2.65,1.86-4.87,4.35-4.95Z"/><path class="cls-38" d="M128.52,419.74c2.49-.08,4.59,2,4.68,4.65,.09,2.65-1.86,4.87-4.35,4.95s-4.59-2-4.68-4.65c-.09-2.65,1.86-4.87,4.35-4.95Z"/><path class="cls-35" d="M101.67,437.47c1.46-.05,2.69,1.17,2.75,2.73,.05,1.56-1.09,2.86-2.56,2.91-1.46,.05-2.69-1.17-2.75-2.73-.05-1.56,1.09-2.86,2.56-2.91Z"/><path class="cls-33" d="M26.22,430.86c1.46-.05,2.69,1.17,2.75,2.73,.05,1.56-1.09,2.86-2.56,2.91-1.46,.05-2.69-1.17-2.75-2.73-.05-1.56,1.09-2.86,2.56-2.91Z"/><path class="cls-34" d="M140.97,470.98c1.46-.05,2.69,1.17,2.75,2.73,.05,1.56-1.09,2.86-2.56,2.91-1.46,.05-2.69-1.17-2.75-2.73-.05-1.56,1.09-2.86,2.56-2.91Z"/><path class="cls-21" d="M183.24,230.61c1.46-.05,2.69,1.17,2.75,2.73,.05,1.56-1.09,2.86-2.56,2.91-1.46,.05-2.69-1.17-2.75-2.73-.05-1.56,1.09-2.86,2.56-2.91Z"/><path class="cls-22" d="M13.45,117.11c6.51-.22,11.97,5.21,12.2,12.12,.23,6.92-4.85,12.7-11.36,12.92-6.51,.22-11.97-5.21-12.2-12.12-.23-6.92,4.85-12.7,11.36-12.92Z"/><path class="cls-27" d="M176.85,86.77c4.35-.15,7.99,3.48,8.15,8.1,.16,4.62-3.24,8.48-7.59,8.63-4.35,.15-7.99-3.48-8.15-8.1-.16-4.62,3.24-8.48,7.59-8.63Z"/><path class="cls-32" d="M136.4,26.38c2.61-.09,4.79,2.09,4.89,4.85,.09,2.77-1.94,5.09-4.55,5.17s-4.79-2.09-4.89-4.85,1.94-5.08,4.55-5.17Z"/><path class="cls-36" d="M122.43,218.75c2.61-.09,4.79,2.09,4.89,4.85,.09,2.77-1.94,5.09-4.55,5.17-2.61,.09-4.79-2.09-4.89-4.85-.09-2.77,1.94-5.09,4.55-5.17Z"/><path class="cls-28" d="M53.45,316.09c3.84-.13,7.07,3.08,7.21,7.16s-2.87,7.5-6.71,7.63c-3.84,.13-7.07-3.08-7.21-7.16s2.87-7.5,6.71-7.63Z"/><path class="cls-37" d="M274.19,236.26c3.84-.13,7.07,3.08,7.21,7.16,.14,4.09-2.87,7.5-6.71,7.63-3.84,.13-7.07-3.08-7.21-7.16-.14-4.09,2.87-7.5,6.71-7.63Z"/><path class="cls-47" d="M335.07,173.76c3.84-.13,7.07,3.08,7.21,7.16,.14,4.09-2.87,7.5-6.71,7.63-3.84,.13-7.07-3.08-7.21-7.16-.14-4.09,2.87-7.5,6.71-7.63Z"/><path class="cls-12" d="M342.97,133.9c3.45-.12,6.34,2.76,6.46,6.42,.12,3.66-2.57,6.73-6.02,6.84-3.45,.12-6.34-2.76-6.46-6.42-.12-3.66,2.57-6.73,6.02-6.84Z"/><path class="cls-11" d="M236.11,124.79c3.45-.12,6.34,2.76,6.46,6.42,.12,3.66-2.57,6.73-6.02,6.84-3.45,.12-6.34-2.76-6.46-6.42-.12-3.66,2.57-6.73,6.02-6.84Z"/><path class="cls-10" d="M173.78,115.38c3.45-.12,6.34,2.76,6.46,6.42,.12,3.66-2.57,6.73-6.02,6.84s-6.34-2.76-6.46-6.42c-.12-3.66,2.57-6.73,6.02-6.84Z"/><path class="cls-39" d="M562.57,128.23c4.71-.16,8.67,3.77,8.84,8.78,.17,5.01-3.52,9.2-8.23,9.36-4.71,.16-8.67-3.77-8.84-8.78s3.52-9.2,8.23-9.36Z"/><path class="cls-40" d="M447.21,65.73c4.71-.16,8.67,3.77,8.84,8.78s-3.52,9.2-8.23,9.36c-4.71,.16-8.67-3.77-8.84-8.78s3.52-9.2,8.23-9.36Z"/><path class="cls-50" d="M399.71,97.23c4.71-.16,8.67,3.77,8.84,8.78s-3.52,9.2-8.23,9.36c-4.71,.16-8.67-3.77-8.84-8.78s3.52-9.2,8.23-9.36Z"/><path class="cls-49" d="M183.02,30.8c2.43-.08,4.46,1.94,4.55,4.52,.09,2.58-1.81,4.74-4.24,4.82-2.43,.08-4.46-1.94-4.55-4.52-.09-2.58,1.81-4.74,4.24-4.82Z"/></g></g></g></svg>