<?xml version="1.0" encoding="UTF-8"?><svg xmlns="http://www.w3.org/2000/svg" xmlns:xlink="http://www.w3.org/1999/xlink" viewBox="0 0 750 500"><defs><style>.cls-1{fill:none;}.cls-2{fill:url(#linear-gradient-2);}.cls-2,.cls-3{mix-blend-mode:luminosity;}.cls-4{fill:url(#radial-gradient);mix-blend-mode:screen;opacity:.37;}.cls-5{clip-path:url(#clippath);}.cls-6,.cls-7,.cls-8,.cls-9,.cls-10,.cls-11,.cls-12,.cls-13,.cls-14{fill:#fff;}.cls-15{clip-path:url(#clippath-3);}.cls-3{fill:url(#linear-gradient);}.cls-7{opacity:.13;}.cls-8{opacity:.18;}.cls-9{opacity:.16;}.cls-16{opacity:.4;}.cls-17{isolation:isolate;}.cls-10{opacity:.49;}.cls-11{opacity:.29;}.cls-12{opacity:.45;}.cls-13{opacity:.39;}.cls-14{opacity:.65;}</style><clipPath id="clippath"><rect class="cls-1" x="895.15" width="750" height="500"/></clipPath><radialGradient id="radial-gradient" cx="4406.48" cy="1327.06" fx="4406.48" fy="1327.06" r="778.39" gradientTransform="translate(-34.33 -1345.03) scale(.21 1) skewX(-.02)" gradientUnits="userSpaceOnUse"><stop offset="0" stop-color="#00aeef"/><stop offset=".04" stop-color="#0090c5"/><stop offset=".09" stop-color="#00729c"/><stop offset=".14" stop-color="#005677"/><stop offset=".19" stop-color="#003f56"/><stop offset=".25" stop-color="#002b3b"/><stop offset=".31" stop-color="#001b25"/><stop offset=".39" stop-color="#000e14"/><stop offset=".49" stop-color="#000608"/><stop offset=".62" stop-color="#000101"/><stop offset="1" stop-color="#000"/></radialGradient><linearGradient id="linear-gradient" x1="173.99" y1="610.59" x2="498.99" y2="27.59" gradientTransform="matrix(1, 0, 0, 1, 0, 0)" gradientUnits="userSpaceOnUse"><stop offset=".04" stop-color="#303cb8"/><stop offset=".25" stop-color="#222f89"/><stop offset=".49" stop-color="#13225a"/><stop offset=".71" stop-color="#091838"/><stop offset=".88" stop-color="#031323"/><stop offset="1" stop-color="#01111c"/></linearGradient><linearGradient id="linear-gradient-2" x1="-1487.35" y1="500" x2="-1487.35" y2="0" gradientTransform="translate(1862.35)" gradientUnits="userSpaceOnUse"><stop offset="0" stop-color="#fff"/><stop offset=".14" stop-color="#c8c8c8"/><stop offset=".32" stop-color="#8c8c8c"/><stop offset=".48" stop-color="#595959"/><stop offset=".64" stop-color="#323232"/><stop offset=".78" stop-color="#161616"/><stop offset=".91" stop-color="#050505"/><stop offset="1" stop-color="#000"/></linearGradient><mask id="mask" width="750" height="500" maskUnits="userSpaceOnUse"><rect class="cls-2" width="750" height="500" transform="translate(750 500) rotate(180)"/></mask><clipPath id="clippath-3"><rect class="cls-1" width="750" height="500" transform="translate(750 500) rotate(180)"/></clipPath></defs><g class="cls-17"><g id="BACKGROUND_2"><g class="cls-5"><ellipse class="cls-4" cx="895.15" cy="-18" rx="164.18" ry="778.48" transform="translate(390.37 721.47) rotate(-54.53)"/></g><g><rect class="cls-3" width="750" height="500"/><g class="cls-15"><g class="cls-16"><path class="cls-12" d="M560.01,498.49c-.07-.5-.52-.84-1.02-.78-.5,.07-.84,.52-.78,1.02,.07,.5,.52,.84,1.02,.78,.5-.07,.84-.52,.78-1.02Z"/><path class="cls-14" d="M538.1,497.75c-.03-.24-.25-.41-.49-.37-.24,.03-.41,.25-.37,.49,.03,.24,.25,.41,.49,.37,.24-.03,.41-.25,.37-.49Z"/><path class="cls-14" d="M541.51,483.42c-.03-.24-.25-.41-.49-.37-.24,.03-.41,.25-.37,.49,.03,.24,.25,.41,.49,.37s.41-.25,.37-.49Z"/><path class="cls-13" d="M572.34,476.21c-.07-.54-.57-.91-1.1-.84-.54,.07-.91,.57-.84,1.1,.07,.54,.57,.91,1.1,.84s.91-.57,.84-1.1Z"/><path class="cls-6" d="M602.49,469.41c-.06-.41-.43-.7-.84-.64-.41,.06-.7,.43-.64,.84s.43,.7,.84,.64c.41-.06,.7-.43,.64-.84Z"/><path class="cls-6" d="M628.65,398.55c-.06-.41-.43-.7-.84-.64-.41,.06-.7,.43-.64,.84,.06,.41,.43,.7,.84,.64,.41-.06,.7-.43,.64-.84Z"/><path class="cls-6" d="M634.69,489.07c-.06-.41-.43-.7-.84-.64-.41,.06-.7,.43-.64,.84,.06,.41,.43,.7,.84,.64s.7-.43,.64-.84Z"/><path class="cls-6" d="M534.61,447.21c-.06-.41-.43-.7-.84-.64s-.7,.43-.64,.84c.06,.41,.43,.7,.84,.64,.41-.06,.7-.43,.64-.84Z"/><path class="cls-10" d="M582.72,485.39c-.06-.41-.43-.7-.84-.64-.41,.06-.7,.43-.64,.84,.06,.41,.43,.7,.84,.64s.7-.43,.64-.84Z"/><path class="cls-11" d="M610.97,499.53c-.1-.73-.77-1.24-1.5-1.14-.73,.1-1.24,.77-1.14,1.5,.1,.73,.77,1.24,1.5,1.14s1.24-.77,1.14-1.5Z"/><path class="cls-9" d="M574.59,464.8c-.05-.39-.41-.66-.8-.61-.39,.05-.66,.41-.61,.8,.05,.39,.41,.66,.8,.61,.39-.05,.66-.41,.61-.8Z"/><path class="cls-7" d="M602.68,481.91c-.1-.73-.77-1.24-1.5-1.14s-1.24,.77-1.14,1.5c.1,.73,.77,1.24,1.5,1.14s1.24-.77,1.14-1.5Z"/><path class="cls-7" d="M586.05,454.32c-.1-.73-.77-1.24-1.5-1.14-.73,.1-1.24,.77-1.14,1.5s.77,1.24,1.5,1.14,1.24-.77,1.14-1.5Z"/><path class="cls-8" d="M624.88,473.59c-.03-.25-.27-.43-.52-.39s-.43,.27-.39,.52,.27,.43,.52,.39,.43-.27,.39-.52Z"/><path class="cls-8" d="M590.19,429.53c-.03-.25-.27-.43-.52-.39s-.43,.27-.39,.52c.03,.25,.27,.43,.52,.39s.43-.27,.39-.52Z"/><path class="cls-8" d="M558.8,485.63c-.07-.5-.52-.84-1.02-.78-.5,.07-.84,.52-.78,1.02,.07,.5,.52,.84,1.02,.78,.5-.07,.84-.52,.78-1.02Z"/><path class="cls-8" d="M561.91,432.93c-.04-.26-.27-.44-.53-.4s-.44,.27-.4,.53,.27,.44,.53,.4,.44-.27,.4-.53Z"/><path class="cls-8" d="M571.58,440.93c-.04-.26-.27-.44-.53-.4s-.44,.27-.4,.53,.27,.44,.53,.4c.26-.04,.44-.27,.4-.53Z"/><path class="cls-8" d="M555.8,456.63c-.04-.26-.27-.44-.53-.4s-.44,.27-.4,.53,.27,.44,.53,.4,.44-.27,.4-.53Z"/><path class="cls-8" d="M555.77,467.37c-.07-.5-.52-.84-1.02-.78-.5,.07-.84,.52-.78,1.02,.07,.5,.52,.84,1.02,.78,.5-.07,.84-.52,.78-1.02Z"/><path class="cls-6" d="M652.31,482.49c-.06-.41-.43-.7-.84-.64-.41,.06-.7,.43-.64,.84,.06,.41,.43,.7,.84,.64s.7-.43,.64-.84Z"/><path class="cls-6" d="M653.04,488.99c-.38,.16-.56,.6-.4,.98,.16,.38,.6,.56,.98,.4s.56-.6,.4-.98c-.16-.38-.6-.56-.98-.4Z"/><path class="cls-6" d="M577.79,482.39c-.38,.16-.56,.6-.4,.98,.16,.38,.6,.56,.98,.4s.56-.6,.4-.98c-.16-.38-.6-.56-.98-.4Z"/><path class="cls-6" d="M663.53,452.75c-.38,.16-.56,.6-.4,.98s.6,.56,.98,.4,.56-.6,.4-.98c-.16-.38-.6-.56-.98-.4Z"/><path class="cls-11" d="M679.87,472.88c-.68,.29-.99,1.07-.71,1.75,.29,.68,1.07,.99,1.75,.71,.68-.29,.99-1.07,.71-1.75-.29-.68-1.07-.99-1.75-.71Z"/><path class="cls-9" d="M688.86,497.45c-.36,.15-.53,.57-.37,.93,.15,.36,.57,.53,.93,.38,.36-.15,.53-.57,.38-.93-.15-.36-.57-.53-.93-.37Z"/><path class="cls-7" d="M665.05,485.52c-.68,.29-.99,1.07-.71,1.75,.29,.68,1.07,.99,1.75,.71,.68-.29,.99-1.07,.71-1.75-.29-.68-1.07-.99-1.75-.71Z"/><path class="cls-8" d="M651.18,466.28c-.23,.1-.34,.37-.24,.6,.1,.23,.37,.34,.6,.24,.23-.1,.34-.37,.24-.6-.1-.23-.37-.34-.6-.24Z"/><path class="cls-6" d="M652.55,437.48c-.38,.16-.56,.6-.4,.98,.16,.38,.6,.56,.98,.4s.56-.6,.4-.98-.6-.56-.98-.4Z"/><path class="cls-8" d="M692.56,466.43c-.23,.1-.34,.37-.24,.6,.1,.23,.37,.34,.6,.24,.23-.1,.34-.37,.24-.6-.1-.23-.37-.34-.6-.24Z"/></g><g class="cls-16"><path class="cls-12" d="M8.2,448.71c-.07-.5-.52-.84-1.02-.78-.5,.07-.84,.52-.78,1.02,.07,.5,.52,.84,1.02,.78,.5-.07,.84-.52,.78-1.02Z"/><path class="cls-13" d="M28.11,457.2c-.07-.54-.57-.91-1.1-.84-.54,.07-.91,.57-.84,1.1,.07,.54,.57,.91,1.1,.84,.54-.07,.91-.57,.84-1.1Z"/><path class="cls-13" d="M20.52,426.43c-.07-.54-.57-.91-1.1-.84-.54,.07-.91,.57-.84,1.1,.07,.54,.57,.91,1.1,.84,.54-.07,.91-.57,.84-1.1Z"/><path class="cls-6" d="M50.68,419.63c-.06-.41-.43-.7-.84-.64-.41,.06-.7,.43-.64,.84s.43,.7,.84,.64c.41-.06,.7-.43,.64-.84Z"/><path class="cls-6" d="M76.84,348.77c-.06-.41-.43-.7-.84-.64-.41,.06-.7,.43-.64,.84s.43,.7,.84,.64c.41-.06,.7-.43,.64-.84Z"/><path class="cls-6" d="M82.88,439.29c-.06-.41-.43-.7-.84-.64-.41,.06-.7,.43-.64,.84,.06,.41,.43,.7,.84,.64s.7-.43,.64-.84Z"/><path class="cls-10" d="M30.9,435.61c-.06-.41-.43-.7-.84-.64-.41,.06-.7,.43-.64,.84,.06,.41,.43,.7,.84,.64,.41-.06,.7-.43,.64-.84Z"/><path class="cls-11" d="M59.16,449.75c-.1-.73-.77-1.24-1.5-1.14s-1.24,.77-1.14,1.5c.1,.73,.77,1.24,1.5,1.14s1.24-.77,1.14-1.5Z"/><path class="cls-11" d="M49.3,466.57c-.05-.39-.41-.66-.8-.61-.39,.05-.66,.41-.61,.8,.05,.39,.41,.66,.8,.61,.39-.05,.66-.41,.61-.8Z"/><path class="cls-9" d="M14.67,469.87c-.05-.39-.41-.66-.8-.61-.39,.05-.66,.41-.61,.8,.05,.39,.41,.66,.8,.61,.39-.05,.66-.41,.61-.8Z"/><path class="cls-9" d="M22.78,415.02c-.05-.39-.41-.66-.8-.61-.39,.05-.66,.41-.61,.8,.05,.39,.41,.66,.8,.61,.39-.05,.66-.41,.61-.8Z"/><path class="cls-9" d="M33.09,451.96c-.05-.39-.41-.66-.8-.61-.39,.05-.66,.41-.61,.8,.05,.39,.41,.66,.8,.61,.39-.05,.66-.41,.61-.8Z"/><path class="cls-7" d="M50.87,432.13c-.1-.73-.77-1.24-1.5-1.14s-1.24,.77-1.14,1.5,.77,1.24,1.5,1.14c.73-.1,1.24-.77,1.14-1.5Z"/><path class="cls-7" d="M34.24,404.54c-.1-.73-.77-1.24-1.5-1.14s-1.24,.77-1.14,1.5c.1,.73,.77,1.24,1.5,1.14s1.24-.77,1.14-1.5Z"/><path class="cls-8" d="M73.07,423.81c-.03-.25-.27-.43-.52-.39s-.43,.27-.39,.52c.03,.25,.27,.43,.52,.39,.25-.03,.43-.27,.39-.52Z"/><path class="cls-8" d="M38.38,379.75c-.03-.25-.27-.43-.52-.39-.25,.03-.43,.27-.39,.52s.27,.43,.52,.39c.25-.03,.43-.27,.39-.52Z"/><path class="cls-8" d="M6.99,435.85c-.07-.5-.52-.84-1.02-.78s-.84,.52-.78,1.02c.07,.5,.52,.84,1.02,.78,.5-.07,.84-.52,.78-1.02Z"/><path class="cls-8" d="M10.09,383.15c-.04-.26-.27-.44-.53-.4s-.44,.27-.4,.53c.04,.26,.27,.44,.53,.4s.44-.27,.4-.53Z"/><path class="cls-8" d="M19.76,391.15c-.04-.26-.27-.44-.53-.4s-.44,.27-.4,.53c.04,.26,.27,.44,.53,.4,.26-.04,.44-.27,.4-.53Z"/><path class="cls-8" d="M3.98,406.84c-.04-.26-.27-.44-.53-.4s-.44,.27-.4,.53c.04,.26,.27,.44,.53,.4,.26-.04,.44-.27,.4-.53Z"/><path class="cls-8" d="M3.96,417.58c-.07-.5-.52-.84-1.02-.78s-.84,.52-.78,1.02c.07,.5,.52,.84,1.02,.78,.5-.07,.84-.52,.78-1.02Z"/><path class="cls-6" d="M100.5,432.71c-.06-.41-.43-.7-.84-.64-.41,.06-.7,.43-.64,.84,.06,.41,.43,.7,.84,.64,.41-.06,.7-.43,.64-.84Z"/><path class="cls-6" d="M6.46,481.36c-.06-.41-.43-.7-.84-.64s-.7,.43-.64,.84c.06,.41,.43,.7,.84,.64,.41-.06,.7-.43,.64-.84Z"/><path class="cls-9" d="M46.44,498.96c-.05-.39-.41-.66-.8-.61-.39,.05-.66,.41-.61,.8,.05,.39,.41,.66,.8,.61s.66-.41,.61-.8Z"/><path class="cls-7" d="M57.89,488.48c-.1-.73-.77-1.24-1.5-1.14-.73,.1-1.24,.77-1.14,1.5s.77,1.24,1.5,1.14c.73-.1,1.24-.77,1.14-1.5Z"/><path class="cls-8" d="M62.04,463.69c-.03-.25-.27-.43-.52-.39s-.43,.27-.39,.52c.03,.25,.27,.43,.52,.39s.43-.27,.39-.52Z"/><path class="cls-8" d="M33.75,467.09c-.04-.26-.27-.44-.53-.4s-.44,.27-.4,.53,.27,.44,.53,.4,.44-.27,.4-.53Z"/><path class="cls-8" d="M43.42,475.09c-.04-.26-.27-.44-.53-.4-.26,.04-.44,.27-.4,.53s.27,.44,.53,.4c.26-.04,.44-.27,.4-.53Z"/><path class="cls-8" d="M27.64,490.78c-.04-.26-.27-.44-.53-.4-.26,.04-.44,.27-.4,.53s.27,.44,.53,.4,.44-.27,.4-.53Z"/><path class="cls-12" d="M140.46,472.53c-.46,.2-.68,.73-.48,1.19,.2,.46,.73,.68,1.19,.48s.68-.73,.48-1.19-.73-.68-1.19-.48Z"/><path class="cls-14" d="M130.78,494.35c-.22,.09-.33,.35-.23,.57,.09,.22,.35,.33,.57,.23,.22-.09,.33-.35,.23-.57-.09-.22-.35-.33-.57-.23Z"/><path class="cls-13" d="M115.72,466.51c-.5,.21-.73,.79-.52,1.28,.21,.5,.79,.73,1.28,.52,.5-.21,.73-.79,.52-1.28s-.79-.73-1.28-.52Z"/><path class="cls-6" d="M101.23,439.21c-.38,.16-.56,.6-.4,.98,.16,.38,.6,.56,.98,.4,.38-.16,.56-.6,.4-.98-.16-.38-.6-.56-.98-.4Z"/><path class="cls-6" d="M25.98,432.61c-.38,.16-.56,.6-.4,.98s.6,.56,.98,.4c.38-.16,.56-.6,.4-.98s-.6-.56-.98-.4Z"/><path class="cls-6" d="M111.72,402.97c-.38,.16-.56,.6-.4,.98,.16,.38,.6,.56,.98,.4s.56-.6,.4-.98c-.16-.38-.6-.56-.98-.4Z"/><path class="cls-10" d="M121.84,454.08c-.38,.16-.56,.6-.4,.98,.16,.38,.6,.56,.98,.4,.38-.16,.56-.6,.4-.98-.16-.38-.6-.56-.98-.4Z"/><path class="cls-11" d="M128.05,423.1c-.68,.29-.99,1.07-.71,1.75,.29,.68,1.07,.99,1.75,.71,.68-.29,.99-1.07,.71-1.75-.29-.68-1.07-.99-1.75-.71Z"/><path class="cls-9" d="M104.11,467.33c-.36,.15-.53,.57-.37,.93s.57,.53,.93,.37c.36-.15,.53-.57,.37-.93-.15-.36-.57-.53-.93-.37Z"/><path class="cls-9" d="M137.04,447.67c-.36,.15-.53,.57-.37,.93,.15,.36,.57,.53,.93,.37,.36-.15,.53-.57,.37-.93-.15-.36-.57-.53-.93-.38Z"/><path class="cls-7" d="M113.23,435.74c-.68,.29-.99,1.07-.71,1.75,.29,.68,1.07,.99,1.75,.71s.99-1.07,.71-1.75c-.29-.68-1.07-.99-1.75-.71Z"/><path class="cls-7" d="M90.99,459.04c-.68,.29-.99,1.07-.71,1.75,.29,.68,1.07,.99,1.75,.71,.68-.29,.99-1.07,.71-1.75-.29-.68-1.07-.99-1.75-.71Z"/><path class="cls-8" d="M99.36,416.5c-.23,.1-.34,.37-.24,.6,.1,.23,.37,.34,.6,.24,.23-.1,.34-.37,.24-.6-.1-.23-.37-.34-.6-.24Z"/><path class="cls-8" d="M65.99,461.56c-.23,.1-.34,.37-.24,.6,.1,.23,.37,.34,.6,.24,.23-.1,.34-.37,.24-.6-.1-.23-.37-.34-.6-.24Z"/><path class="cls-8" d="M128.37,477.09c-.46,.2-.68,.73-.48,1.19,.2,.46,.73,.68,1.19,.48,.46-.2,.68-.73,.48-1.19s-.73-.68-1.19-.48Z"/><path class="cls-8" d="M76.71,487.96c-.24,.1-.35,.38-.25,.62,.1,.24,.38,.35,.62,.25,.24-.1,.35-.38,.25-.62-.1-.24-.38-.35-.62-.25Z"/><path class="cls-8" d="M81.88,476.52c-.24,.1-.35,.38-.25,.62,.1,.24,.38,.35,.62,.25,.24-.1,.35-.38,.25-.62-.1-.24-.38-.35-.62-.25Z"/><path class="cls-8" d="M101.17,487.62c-.24,.1-.35,.38-.25,.62,.1,.24,.38,.35,.62,.25,.24-.1,.35-.38,.25-.62-.1-.24-.38-.35-.62-.25Z"/><path class="cls-8" d="M111.54,484.82c-.46,.2-.68,.73-.48,1.19,.2,.46,.73,.68,1.19,.48,.46-.2,.68-.73,.48-1.19-.2-.46-.73-.68-1.19-.48Z"/><path class="cls-6" d="M100.74,387.7c-.38,.16-.56,.6-.4,.98,.16,.38,.6,.56,.98,.4,.38-.16,.56-.6,.4-.98-.16-.38-.6-.56-.98-.4Z"/><path class="cls-8" d="M140.75,416.65c-.23,.1-.34,.37-.24,.6,.1,.23,.37,.34,.6,.24,.23-.1,.34-.37,.24-.6-.1-.23-.37-.34-.6-.24Z"/></g></g></g></g></g></svg>